<?xml version="1.0" standalone="no"?><!DOCTYPE svg PUBLIC "-//W3C//DTD SVG 1.1//EN" "http://www.w3.org/Graphics/SVG/1.1/DTD/svg11.dtd"><svg t="1612149994511" class="icon" viewBox="0 0 1024 1024" version="1.1" xmlns="http://www.w3.org/2000/svg" p-id="1458" xmlns:xlink="http://www.w3.org/1999/xlink" width="200" height="200"><defs><style type="text/css"></style></defs><path d="M957.3 483.55c0 18.16-3.83 35.4-10.66 51.02-6.88 208.49-173.3 375.27-377.6 375.27-208.6 0-377.76-173.98-377.76-388.63 0-3.1 0.05-6.16 0.15-9.26h3.62c-9.11-17.49-14.23-37.36-14.23-58.47 0-70.17 56.92-127.09 127.09-127.09 20.08 0 39.07 4.66 55.94 12.99 14.59-54.13 64.01-93.97 122.75-93.97 70.17 0 127.04 56.92 127.04 127.09 0 11.28-1.5 22.25-4.24 32.7 5.43-0.72 10.92-1.09 16.56-1.09 33.07 0 63.18 12.63 85.85 33.38 18.42-47.4 64.48-80.99 118.4-80.99 70.17 0.01 127.09 56.88 127.09 127.05z" fill="#FFBAA3" p-id="1459"></path><path d="M472.66 843.79c-53.14 0-104.7-10.71-153.24-31.82-46.85-20.38-88.91-49.55-125.02-86.69-36.08-37.11-64.41-80.33-84.19-128.44-20.47-49.79-30.86-102.68-30.86-157.18 0-3.23 0.05-6.51 0.14-9.74 0.24-8.4 7.12-15.07 15.52-15.07H850.3c8.4 0 15.27 6.68 15.52 15.07 0.09 3.23 0.14 6.51 0.14 9.74 0 53.26-9.93 105.03-29.51 153.86-3.19 7.96-12.23 11.82-20.19 8.63-7.96-3.19-11.82-12.23-8.63-20.19 17.33-43.24 26.49-88.98 27.23-136.07H110.45c1.54 97.41 39.12 188.73 106.21 257.74 68.4 70.36 159.32 109.11 256 109.11 50.04 0 98.5-10.31 144.01-30.64 44.01-19.66 83.28-47.73 116.74-83.45 5.86-6.26 15.69-6.58 21.94-0.72s6.58 15.69 0.72 21.94c-36.3 38.75-78.94 69.22-126.74 90.57-49.52 22.13-102.24 33.35-156.67 33.35z" fill="#9F1711" p-id="1460"></path><path d="M152.38 440.15c-5.56 0-10.93-2.99-13.72-8.25-9.62-18.12-14.71-38.6-14.71-59.23 0-69.72 56.72-126.44 126.44-126.44s126.44 56.72 126.44 126.44c0 14.99-2.6 29.67-7.74 43.63-2.96 8.05-11.88 12.17-19.93 9.21-8.05-2.96-12.17-11.88-9.21-19.93 3.87-10.52 5.83-21.59 5.83-32.92 0-52.6-42.79-95.39-95.39-95.39S155 320.07 155 372.67c0 15.57 3.83 31.02 11.08 44.67 4.02 7.57 1.14 16.97-6.43 20.99a15.482 15.482 0 0 1-7.27 1.82zM418.38 439.62c-0.76 0-1.53-0.06-2.3-0.17-8.48-1.26-14.34-9.15-13.08-17.63 4.41-29.69 19.36-56.94 42.12-76.74 22.99-20 52.45-31.01 82.95-31.01 30.28 0 59.58 10.87 82.5 30.62 22.67 19.53 37.72 46.48 42.38 75.89 1.34 8.47-4.43 16.42-12.9 17.76-8.46 1.34-16.42-4.43-17.76-12.9-3.51-22.16-14.87-42.49-31.98-57.23-17.28-14.89-39.38-23.09-62.23-23.09-23.01 0-45.23 8.31-62.57 23.39-17.18 14.94-28.46 35.49-31.78 57.87-1.16 7.7-7.79 13.24-15.35 13.24z" fill="#9F1711" p-id="1461"></path><path d="M814.29 440.23c-1.19 0-2.4-0.14-3.61-0.42-8.34-1.98-13.49-10.35-11.51-18.7a95.658 95.658 0 0 0 2.59-22.17c0-52.6-42.79-95.39-95.39-95.39-19.59 0-38.41 5.89-54.42 17.04-15.67 10.9-27.59 26.02-34.5 43.73-3.11 7.99-12.11 11.94-20.1 8.83-7.99-3.11-11.94-12.11-8.83-20.1 9.15-23.46 24.94-43.5 45.68-57.93 21.24-14.79 46.19-22.6 72.16-22.6 69.72 0 126.44 56.72 126.44 126.44 0 9.91-1.15 19.79-3.43 29.36-1.69 7.11-8.06 11.91-15.08 11.91zM516.35 332.21c-0.68 0-1.37-0.04-2.06-0.14-8.5-1.13-14.48-8.93-13.35-17.43 0.55-4.17 0.83-8.43 0.83-12.66 0-52.6-42.79-95.39-95.39-95.39-41.33 0-77.76 26.36-90.65 65.59-2.68 8.15-11.45 12.58-19.59 9.9-8.15-2.68-12.58-11.45-9.9-19.59 17.09-52.01 65.37-86.95 120.15-86.95 69.72 0 126.44 56.72 126.44 126.44 0 5.6-0.37 11.23-1.1 16.74-1.05 7.81-7.72 13.49-15.38 13.49zM648.96 899.71h-352.6c-8.57 0-15.52-6.95-15.52-15.52s6.95-15.52 15.52-15.52h352.59c8.57 0 15.52 6.95 15.52 15.52s-6.94 15.52-15.51 15.52z" fill="#9F1711" p-id="1462"></path></svg>